<svg width="24" height="18" viewBox="0 0 24 18" fill="none" xmlns="http://www.w3.org/2000/svg">
<path d="M18.7647 10.125V7.875H23.2353V10.125H18.7647ZM20.1059 18L16.5294 15.3L17.8706 13.5L21.447 16.2L20.1059 18ZM17.8706 4.5L16.5294 2.7L20.1059 0L21.447 1.8L17.8706 4.5ZM4.23527 16.875V12.375H3.11762C2.50291 12.375 1.97669 12.1547 1.53894 11.7141C1.1012 11.2734 0.882324 10.7437 0.882324 10.125V7.875C0.882324 7.25625 1.1012 6.72656 1.53894 6.28594C1.97669 5.84531 2.50291 5.625 3.11762 5.625H7.58821L13.1764 2.25V15.75L7.58821 12.375H6.47056V16.875H4.23527ZM10.9411 11.7562V6.24375L8.20291 7.875H3.11762V10.125H8.20291L10.9411 11.7562ZM14.2941 12.7688V5.23125C14.797 5.68125 15.2022 6.22969 15.5095 6.87656C15.8169 7.52344 15.9706 8.23125 15.9706 9C15.9706 9.76875 15.8169 10.4766 15.5095 11.1234C15.2022 11.7703 14.797 12.3188 14.2941 12.7688Z" fill="#222222"/>
</svg>
