<svg width="22" height="18" viewBox="0 0 22 18" fill="none" xmlns="http://www.w3.org/2000/svg">
<path d="M13.2288 0.0374263C13.484 0.109217 13.7003 0.279434 13.8301 0.510651C13.9598 0.741869 13.9925 1.01516 13.9208 1.27043L9.49079 17.0584C9.45533 17.1849 9.39531 17.3031 9.31416 17.4064C9.233 17.5097 9.13231 17.5959 9.01781 17.6603C8.90332 17.7246 8.77727 17.7658 8.64686 17.7814C8.51646 17.7971 8.38425 17.7869 8.25779 17.7514C8.13132 17.716 8.01308 17.656 7.90981 17.5748C7.80655 17.4936 7.72027 17.3929 7.65592 17.2785C7.59157 17.164 7.5504 17.0379 7.53477 16.9075C7.51913 16.7771 7.52933 16.6449 7.56479 16.5184L11.9948 0.730426C12.0302 0.603844 12.0903 0.48549 12.1715 0.382135C12.2527 0.278779 12.3535 0.19245 12.4681 0.128085C12.5827 0.0637203 12.7089 0.0225835 12.8394 0.00702742C12.9699 -0.00852869 13.1023 0.00180112 13.2288 0.0374263ZM5.94979 3.94443C6.13726 4.13195 6.24257 4.38626 6.24257 4.65143C6.24257 4.91659 6.13726 5.1709 5.94979 5.35843L2.41479 8.89443L5.94979 12.4294C6.0427 12.5223 6.11641 12.6325 6.16672 12.7538C6.21703 12.8752 6.24294 13.0052 6.24299 13.1366C6.24304 13.2679 6.21721 13.398 6.16699 13.5194C6.11677 13.6407 6.04313 13.751 5.95029 13.8439C5.85744 13.9368 5.74721 14.0105 5.62587 14.0609C5.50454 14.1112 5.37449 14.1371 5.24314 14.1371C5.11179 14.1372 4.98172 14.1114 4.86035 14.0611C4.73898 14.0109 4.6287 13.9373 4.53579 13.8444L0.292786 9.60143C0.105315 9.4139 0 9.15959 0 8.89443C0 8.62926 0.105315 8.37495 0.292786 8.18743L4.53579 3.94443C4.72331 3.75696 4.97762 3.65164 5.24279 3.65164C5.50795 3.65164 5.76226 3.75696 5.94979 3.94443ZM15.5358 5.35843C15.4403 5.26618 15.3641 5.15583 15.3117 5.03383C15.2593 4.91183 15.2317 4.78061 15.2305 4.64783C15.2294 4.51505 15.2547 4.38337 15.305 4.26047C15.3552 4.13758 15.4295 4.02592 15.5234 3.93203C15.6173 3.83814 15.7289 3.76389 15.8518 3.7136C15.9747 3.66332 16.1064 3.63802 16.2392 3.63918C16.372 3.64033 16.5032 3.66792 16.6252 3.72032C16.7472 3.77273 16.8575 3.84892 16.9498 3.94443L21.1928 8.18743C21.3803 8.37495 21.4856 8.62926 21.4856 8.89443C21.4856 9.15959 21.3803 9.4139 21.1928 9.60143L16.9498 13.8444C16.7621 14.0319 16.5077 14.1372 16.2424 14.1371C15.9772 14.137 15.7228 14.0316 15.5353 13.8439C15.3478 13.6563 15.2425 13.4018 15.2426 13.1366C15.2427 12.8713 15.3481 12.6169 15.5358 12.4294L19.0708 8.89443L15.5358 5.35843Z" fill="#222222"/>
</svg>
