<svg width="98" height="27" viewBox="0 0 98 27" fill="none" xmlns="http://www.w3.org/2000/svg">
<path d="M8.336 26.34C6.704 26.34 5.29867 26.068 4.12 25.524C2.964 24.98 2.06867 24.198 1.434 23.178C0.799334 22.158 0.470667 20.9453 0.448 19.54H3.508C3.508 20.7867 3.92733 21.7727 4.766 22.498C5.62733 23.2233 6.81733 23.586 8.336 23.586C9.764 23.586 10.8747 23.2347 11.668 22.532C12.484 21.8293 12.892 20.8547 12.892 19.608C12.892 18.6107 12.62 17.738 12.076 16.99C11.5547 16.242 10.7953 15.7207 9.798 15.426L6.432 14.372C4.732 13.8507 3.41733 12.978 2.488 11.754C1.58133 10.53 1.128 9.09067 1.128 7.436C1.128 6.09867 1.42267 4.94267 2.012 3.968C2.624 2.97067 3.474 2.2 4.562 1.656C5.65 1.08933 6.93067 0.805998 8.404 0.805998C10.58 0.805998 12.3253 1.418 13.64 2.642C14.9547 3.84333 15.6233 5.45267 15.646 7.47H12.586C12.586 6.246 12.212 5.294 11.464 4.614C10.7387 3.91133 9.70733 3.56 8.37 3.56C7.05533 3.56 6.024 3.87733 5.276 4.512C4.55067 5.14667 4.188 6.03067 4.188 7.164C4.188 8.184 4.46 9.068 5.004 9.816C5.548 10.564 6.33 11.0967 7.35 11.414L10.75 12.502C12.4047 13.0233 13.6853 13.9073 14.592 15.154C15.4987 16.4007 15.952 17.8627 15.952 19.54C15.952 20.9 15.6347 22.09 15 23.11C14.3653 24.13 13.47 24.9233 12.314 25.49C11.1807 26.0567 9.85467 26.34 8.336 26.34ZM21.5147 26V1.18H24.5747V7.3V10.87H25.2207L24.5747 11.584C24.5747 10.1107 25.0167 8.97733 25.9007 8.184C26.7847 7.368 28.0087 6.96 29.5727 6.96C31.4541 6.96 32.9501 7.538 34.0607 8.694C35.1714 9.85 35.7267 11.4253 35.7267 13.42V26H32.6667V13.76C32.6667 12.4227 32.3041 11.3913 31.5787 10.666C30.8761 9.918 29.9127 9.544 28.6887 9.544C27.4194 9.544 26.4107 9.94067 25.6627 10.734C24.9374 11.5273 24.5747 12.6493 24.5747 14.1V26H21.5147ZM52.7134 26V20.56H41.4934V15.766L51.3194 1.18H54.6514L44.5534 16.412V17.772H52.7134V11.72H55.7734V26H52.7134ZM62.9342 26V7.3H65.9262V10.87H66.6402L65.6542 13.08C65.6542 11.0627 66.0848 9.544 66.9462 8.524C67.8302 7.48133 69.1335 6.96 70.8562 6.96C72.8282 6.96 74.3922 7.58333 75.5482 8.83C76.7268 10.054 77.3162 11.72 77.3162 13.828V14.95H74.2562V14.1C74.2562 12.6267 73.8935 11.5047 73.1682 10.734C72.4655 9.94067 71.4568 9.544 70.1422 9.544C68.8502 9.544 67.8302 9.94067 67.0822 10.734C66.3568 11.5273 65.9942 12.6493 65.9942 14.1V26H62.9342ZM89.7469 26.34C88.2735 26.34 86.9815 26.0453 85.8709 25.456C84.7829 24.8667 83.9329 24.0393 83.3209 22.974C82.7315 21.886 82.4369 20.628 82.4369 19.2V14.1C82.4369 12.6493 82.7315 11.3913 83.3209 10.326C83.9329 9.26067 84.7829 8.43333 85.8709 7.844C86.9815 7.25467 88.2735 6.96 89.7469 6.96C91.2202 6.96 92.5009 7.25467 93.5889 7.844C94.6995 8.43333 95.5495 9.26067 96.1389 10.326C96.7509 11.3913 97.0569 12.6493 97.0569 14.1V17.398H85.4289V19.2C85.4289 20.6733 85.8029 21.8067 86.5509 22.6C87.2989 23.3707 88.3642 23.756 89.7469 23.756C90.9255 23.756 91.8775 23.552 92.6029 23.144C93.3282 22.7133 93.7702 22.0787 93.9289 21.24H96.9889C96.7849 22.804 96.0142 24.0507 94.6769 24.98C93.3622 25.8867 91.7189 26.34 89.7469 26.34ZM94.0649 15.358V14.1C94.0649 12.6267 93.6909 11.4933 92.9429 10.7C92.2175 9.90667 91.1522 9.51 89.7469 9.51C88.3642 9.51 87.2989 9.90667 86.5509 10.7C85.8029 11.4933 85.4289 12.6267 85.4289 14.1V15.086H94.3029L94.0649 15.358Z" fill="url(#paint0_linear_2_2)"/>
<defs>
<linearGradient id="paint0_linear_2_2" x1="-2" y1="13.5" x2="100" y2="13.5" gradientUnits="userSpaceOnUse">
<stop/>
<stop offset="1" stop-color="#0095FF"/>
</linearGradient>
</defs>
</svg>
